<svg width="86" height="86" viewBox="0 0 86 86" fill="none" xmlns="http://www.w3.org/2000/svg">
<g id="dashicons:awards">
<path id="Vector" d="M19.1781 22.188L21.5001 32.078L19.1781 41.925L27.8211 47.257L33.1101 55.9L43.0001 53.578L52.8901 55.9L58.1791 47.257L66.8221 41.925L64.5001 32.078L66.8221 22.188L58.2221 16.856L52.8901 8.21301L43.0001 10.578L33.1531 8.25601L27.7781 16.856L19.1781 22.188ZM43.0431 49.45C38.4814 49.45 34.1065 47.6379 30.8808 44.4123C27.6552 41.1866 25.8431 36.8117 25.8431 32.25C25.8431 27.6883 27.6552 23.3134 30.8808 20.0878C34.1065 16.8622 38.4814 15.05 43.0431 15.05C52.5031 15.05 60.2001 22.747 60.2001 32.207C60.2001 41.753 52.5031 49.45 43.0431 49.45ZM42.9571 45.15C35.8191 45.15 30.1001 39.388 30.1001 32.25C30.1001 25.155 35.8191 19.35 42.9571 19.35C50.0951 19.35 55.9001 25.155 55.9001 32.25C55.9001 39.388 50.0951 45.15 42.9571 45.15ZM59.4691 49.88L53.9651 59.512L45.0211 57.491L55.9001 82.56L61.9201 73.1H72.6701L59.4691 49.88ZM26.3591 50.181L31.7341 59.856L40.8931 57.663L30.1001 82.56L24.0801 73.1H13.3301L26.3591 50.181Z" fill="#EEB663"/>
</g>
</svg>
