<svg width="24" height="24" viewBox="0 0 24 24" fill="none" xmlns="http://www.w3.org/2000/svg">
<g id="Icons / instagram">
<g id="brand / instagram">
<path d="M11.999 7.37688C9.445 7.37688 7.376 9.44688 7.376 11.9999C7.376 14.5539 9.445 16.6239 11.999 16.6239C14.551 16.6239 16.622 14.5539 16.622 11.9999C16.622 9.44688 14.551 7.37688 11.999 7.37688ZM11.999 15.0039C10.34 15.0039 8.995 13.6589 8.995 12.0009C8.995 10.3419 10.34 8.99788 11.999 8.99788C13.658 8.99788 15.001 10.3419 15.001 12.0009C15.001 13.6589 13.658 15.0039 11.999 15.0039Z" fill="#212121"/>
<path d="M16.806 8.28488C17.4014 8.28488 17.884 7.80225 17.884 7.20688C17.884 6.61152 17.4014 6.12888 16.806 6.12888C16.2106 6.12888 15.728 6.61152 15.728 7.20688C15.728 7.80225 16.2106 8.28488 16.806 8.28488Z" fill="#212121"/>
<path d="M20.533 6.11088C20.064 4.90188 19.109 3.94588 17.9 3.47888C17.201 3.21588 16.462 3.07488 15.714 3.05888C14.751 3.01688 14.446 3.00488 12.004 3.00488C9.562 3.00488 9.249 3.00488 8.294 3.05888C7.548 3.07388 6.809 3.21488 6.11 3.47888C4.9 3.94588 3.945 4.90188 3.477 6.11088C3.214 6.81088 3.073 7.54888 3.058 8.29688C3.015 9.25888 3.002 9.56388 3.002 12.0069C3.002 14.4489 3.002 14.7599 3.058 15.7169C3.073 16.4649 3.214 17.2029 3.477 17.9039C3.946 19.1119 4.901 20.0679 6.111 20.5359C6.807 20.8079 7.546 20.9619 8.296 20.9859C9.259 21.0279 9.564 21.0409 12.006 21.0409C14.448 21.0409 14.761 21.0409 15.716 20.9859C16.463 20.9709 17.202 20.8289 17.902 20.5669C19.111 20.0979 20.066 19.1429 20.535 17.9339C20.798 17.2339 20.939 16.4959 20.954 15.7479C20.997 14.7859 21.01 14.4809 21.01 12.0379C21.01 9.59488 21.01 9.28488 20.954 8.32788C20.941 7.56988 20.801 6.81888 20.533 6.11088ZM19.315 15.6429C19.308 16.2189 19.204 16.7899 19.004 17.3309C18.699 18.1179 18.078 18.7399 17.292 19.0419C16.757 19.2409 16.193 19.3449 15.622 19.3529C14.672 19.3969 14.404 19.4079 11.968 19.4079C9.53 19.4079 9.281 19.4079 8.313 19.3529C7.744 19.3459 7.178 19.2409 6.644 19.0419C5.855 18.7409 5.23 18.1189 4.925 17.3309C4.729 16.7969 4.623 16.2319 4.614 15.6619C4.571 14.7119 4.561 14.4439 4.561 12.0079C4.561 9.57088 4.561 9.32188 4.614 8.35288C4.621 7.77688 4.725 7.20688 4.925 6.66588C5.23 5.87688 5.855 5.25588 6.644 4.95388C7.178 4.75588 7.744 4.65088 8.313 4.64288C9.264 4.59988 9.531 4.58788 11.968 4.58788C14.405 4.58788 14.655 4.58788 15.622 4.64288C16.193 4.64988 16.757 4.75488 17.292 4.95388C18.078 5.25688 18.699 5.87888 19.004 6.66588C19.2 7.19988 19.306 7.76488 19.315 8.33488C19.358 9.28588 19.369 9.55288 19.369 11.9899C19.369 14.4259 19.369 14.6879 19.326 15.6439H19.315V15.6429Z" fill="#212121"/>
</g>
</g>
</svg>
