<svg width="21" height="22" viewBox="0 0 21 22" fill="none" xmlns="http://www.w3.org/2000/svg">
<g id="Like" clip-path="url(#clip0_545_3144)">
<path id="Vector" d="M17.9125 4.77717C17.4752 4.33961 16.9559 3.9925 16.3843 3.75568C15.8128 3.51886 15.2002 3.39697 14.5815 3.39697C13.9629 3.39697 13.3503 3.51886 12.7787 3.75568C12.2072 3.9925 11.6879 4.33961 11.2506 4.77717L10.3429 5.68484L9.43522 4.77717C8.55179 3.89374 7.3536 3.39743 6.10424 3.39743C4.85488 3.39743 3.65669 3.89374 2.77326 4.77717C1.88983 5.6606 1.39352 6.85879 1.39352 8.10815C1.39352 9.35751 1.88983 10.5557 2.77326 11.4391L3.68093 12.3468L10.3429 19.0088L17.0049 12.3468L17.9125 11.4391C18.3501 11.0018 18.6972 10.4825 18.934 9.91095C19.1708 9.33941 19.2927 8.72681 19.2927 8.10815C19.2927 7.48949 19.1708 6.87689 18.934 6.30535C18.6972 5.73381 18.3501 5.21453 17.9125 4.77717V4.77717Z" stroke="#424242" stroke-width="1.14172" stroke-linecap="round" stroke-linejoin="round"/>
</g>
<defs>
<clipPath id="clip0_545_3144">
<rect width="20.551" height="20.551" fill="white" transform="translate(0.0673828 0.82959)"/>
</clipPath>
</defs>
</svg>
