<svg width="31" height="20" viewBox="0 0 31 20" fill="none" xmlns="http://www.w3.org/2000/svg">
<g clip-path="url(#clip0_6368_1681)">
<path d="M19.453 3.48438H11.5391V16.5131H19.453V3.48438Z" fill="#FF5F00"/>
<path d="M12.3542 10.0005C12.3532 8.74599 12.6354 7.50765 13.1793 6.37923C13.7232 5.25082 14.5146 4.2619 15.4937 3.48731C14.2811 2.52672 12.8248 1.92938 11.2913 1.76357C9.75784 1.59777 8.209 1.87017 6.82184 2.54967C5.43468 3.22916 4.26516 4.28832 3.44694 5.6061C2.62872 6.92388 2.19482 8.44711 2.19482 10.0017C2.19482 11.5563 2.62872 13.0795 3.44694 14.3973C4.26516 15.7151 5.43468 16.7742 6.82184 17.4537C8.209 18.1332 9.75784 18.4056 11.2913 18.2398C12.8248 18.074 14.2811 17.4767 15.4937 16.5161C14.5143 15.7413 13.7227 14.752 13.1788 13.6231C12.6348 12.4943 12.3529 11.2555 12.3542 10.0005Z" fill="#EB001B"/>
<path d="M28.0084 15.1357V14.8687H28.1226V14.8135H27.8509V14.8687H27.9582V15.1357H28.0084ZM28.5359 15.1357V14.8135H28.4537L28.3578 15.0436L28.2619 14.8135H28.1797V15.1357H28.239V14.8917L28.3281 15.1012H28.3897L28.4788 14.8917V15.1357H28.5359Z" fill="#F79E1B"/>
<path d="M28.7938 10.0004C28.7938 11.5551 28.3597 13.0784 27.5414 14.3962C26.723 15.7141 25.5533 16.7732 24.166 17.4526C22.7786 18.132 21.2297 18.4042 19.6961 18.2382C18.1625 18.0721 16.7062 17.4745 15.4937 16.5136C16.4724 15.7383 17.2636 14.7492 17.8076 13.6207C18.3517 12.4922 18.6344 11.2539 18.6344 9.99924C18.6344 8.74456 18.3517 7.50627 17.8076 6.3778C17.2636 5.24932 16.4724 4.26013 15.4937 3.48485C16.7062 2.52396 18.1625 1.92633 19.6961 1.76029C21.2297 1.59424 22.7786 1.86647 24.166 2.54587C25.5533 3.22526 26.723 4.28441 27.5414 5.60223C28.3597 6.92005 28.7938 8.44338 28.7938 9.99809V10.0004Z" fill="#F79E1B"/>
</g>
<defs>
<clipPath id="clip0_6368_1681">
<rect width="30" height="20" fill="white" transform="translate(0.494843)"/>
</clipPath>
</defs>
</svg>
