<svg width="55" height="20" viewBox="0 0 55 20" fill="none" xmlns="http://www.w3.org/2000/svg">
<g clip-path="url(#clip0_6368_1670)">
<path d="M7.22803 3.33301H3.07968C2.94235 3.33292 2.8095 3.38173 2.70507 3.47064C2.60065 3.55955 2.5315 3.68271 2.51011 3.81793L0.832331 14.4216C0.824618 14.4708 0.827695 14.5211 0.841348 14.569C0.855002 14.6169 0.878908 14.6613 0.911422 14.6991C0.943936 14.7369 0.984285 14.7673 1.02969 14.7881C1.07509 14.8088 1.12448 14.8195 1.17444 14.8195H3.1549C3.29232 14.8195 3.42524 14.7706 3.52968 14.6816C3.63412 14.5926 3.7032 14.4693 3.72447 14.3339L4.17697 11.474C4.19822 11.3387 4.26721 11.2155 4.37153 11.1265C4.47584 11.0375 4.60862 10.9885 4.74593 10.9884H6.05916C8.79177 10.9884 10.3689 9.67031 10.7807 7.05823C10.9663 5.91545 10.7886 5.01755 10.2518 4.38872C9.6622 3.69821 8.61647 3.33301 7.22803 3.33301ZM7.70661 7.20577C7.47976 8.68957 6.34243 8.68957 5.24272 8.68957H4.61673L5.05589 5.91848C5.06875 5.8374 5.11021 5.76357 5.17281 5.71025C5.23542 5.65694 5.31505 5.62764 5.39739 5.62764H5.6843C6.43342 5.62764 7.14007 5.62764 7.50523 6.05331C7.72299 6.30726 7.78971 6.68456 7.70661 7.20577ZM19.6282 7.158H17.6417C17.5593 7.158 17.4797 7.1873 17.4171 7.24061C17.3545 7.29393 17.313 7.36776 17.3002 7.44884L17.2122 8.00269L17.0733 7.80195C16.6432 7.17977 15.6843 6.97177 14.7271 6.97177C12.5319 6.97177 10.657 8.62911 10.2918 10.954C10.102 12.1137 10.3719 13.2226 11.0318 13.9959C11.6372 14.707 12.5034 15.0033 13.534 15.0033C15.3027 15.0033 16.2835 13.8696 16.2835 13.8696L16.195 14.4198C16.1871 14.469 16.19 14.5193 16.2035 14.5673C16.217 14.6153 16.2408 14.6597 16.2732 14.6977C16.3056 14.7356 16.3458 14.7661 16.3912 14.787C16.4365 14.8079 16.4859 14.8188 16.5359 14.8189H18.3253C18.4627 14.8189 18.5956 14.77 18.7 14.681C18.8045 14.592 18.8736 14.4687 18.8948 14.3333L19.9685 7.55586C19.9764 7.50677 19.9735 7.45656 19.96 7.4087C19.9466 7.36083 19.9228 7.31645 19.8905 7.27862C19.8581 7.24079 19.8179 7.21041 19.7726 7.18959C19.7273 7.16876 19.6781 7.15799 19.6282 7.158ZM16.8592 11.012C16.6675 12.1433 15.7667 12.9027 14.6179 12.9027C14.041 12.9027 13.5801 12.7183 13.284 12.3688C12.9905 12.0218 12.8789 11.5278 12.9723 10.9776C13.1512 9.85593 14.0671 9.07171 15.1984 9.07171C15.7625 9.07171 16.2211 9.25854 16.5231 9.61105C16.8258 9.96719 16.9459 10.4642 16.8592 11.012ZM30.208 7.158H28.2118C28.1176 7.15815 28.025 7.18119 27.9418 7.22513C27.8586 7.26907 27.7874 7.33257 27.7344 7.41014L24.9812 11.4528L23.8141 7.56795C23.7783 7.44946 23.7052 7.34562 23.6055 7.27179C23.5059 7.19796 23.3851 7.15806 23.2609 7.158H21.2993C21.2442 7.15786 21.1899 7.17082 21.1409 7.19582C21.0919 7.22082 21.0496 7.25713 21.0175 7.30173C20.9854 7.34633 20.9644 7.39792 20.9563 7.45222C20.9483 7.50652 20.9534 7.56195 20.9711 7.6139L23.17 14.0461L21.1028 16.9551C21.066 17.0067 21.0442 17.0673 21.0398 17.1304C21.0353 17.1935 21.0484 17.2566 21.0775 17.3128C21.1066 17.369 21.1507 17.4161 21.2049 17.449C21.2591 17.4819 21.3214 17.4993 21.3848 17.4993H23.3786C23.4717 17.4994 23.5634 17.477 23.6459 17.4341C23.7285 17.3911 23.7993 17.3288 23.8523 17.2526L30.4919 7.69916C30.5279 7.64747 30.549 7.58695 30.5529 7.52416C30.5569 7.46137 30.5435 7.3987 30.5142 7.34295C30.485 7.28719 30.441 7.24049 30.387 7.20788C30.333 7.17528 30.2711 7.15803 30.208 7.158Z" fill="#253B80"/>
<path d="M36.8172 3.33361H32.6683C32.531 3.33367 32.3983 3.38254 32.294 3.47144C32.1897 3.56033 32.1207 3.68342 32.0993 3.81854L30.4215 14.4222C30.4137 14.4713 30.4167 14.5216 30.4302 14.5694C30.4438 14.6173 30.4676 14.6617 30.5 14.6995C30.5324 14.7373 30.5726 14.7677 30.6179 14.7885C30.6632 14.8093 30.7125 14.8201 30.7624 14.8201H32.8915C32.9875 14.8199 33.0804 14.7856 33.1533 14.7233C33.2263 14.6611 33.2745 14.5749 33.2894 14.4803L33.7655 11.4746C33.7868 11.3393 33.8558 11.2161 33.9601 11.1271C34.0644 11.0381 34.1972 10.9891 34.3345 10.989H35.6471C38.3804 10.989 39.9568 9.67091 40.3693 7.05884C40.5555 5.91606 40.3766 5.01816 39.8398 4.38932C39.2508 3.69882 38.2057 3.33361 36.8172 3.33361ZM37.2958 7.20637C37.0695 8.69017 35.9322 8.69017 34.8319 8.69017H34.2065L34.6463 5.91908C34.6589 5.83801 34.7002 5.76411 34.7627 5.71076C34.8253 5.65741 34.9049 5.62814 34.9872 5.62824H35.2741C36.0226 5.62824 36.7299 5.62825 37.095 6.05392C37.3128 6.30787 37.3789 6.68517 37.2958 7.20637ZM49.2168 7.1586H47.2315C47.1491 7.15838 47.0694 7.18761 47.0069 7.24098C46.9443 7.29434 46.9031 7.36831 46.8906 7.44944L46.8026 8.0033L46.6631 7.80255C46.233 7.18037 45.2747 6.97237 44.3175 6.97237C42.1223 6.97237 40.248 8.62971 39.8828 10.9546C39.6936 12.1143 39.9623 13.2232 40.6222 13.9966C41.2288 14.7076 42.0938 15.0039 43.1244 15.0039C44.8931 15.0039 45.8739 13.8702 45.8739 13.8702L45.7854 14.4204C45.7775 14.4697 45.7804 14.5201 45.794 14.5682C45.8075 14.6162 45.8314 14.6608 45.8639 14.6987C45.8965 14.7367 45.9369 14.7671 45.9824 14.788C46.0279 14.8088 46.0774 14.8196 46.1275 14.8195H47.9163C48.0536 14.8194 48.1864 14.7704 48.2907 14.6814C48.395 14.5924 48.464 14.4692 48.4852 14.3339L49.5595 7.55646C49.5671 7.50722 49.5639 7.45692 49.5502 7.40902C49.5365 7.36111 49.5125 7.31674 49.4799 7.27894C49.4474 7.24114 49.407 7.21082 49.3616 7.19004C49.3161 7.16927 49.2667 7.15855 49.2168 7.1586ZM46.4478 11.0126C46.2573 12.1439 45.3553 12.9033 44.2065 12.9033C43.6308 12.9033 43.1686 12.7189 42.8726 12.3694C42.579 12.0224 42.4686 11.5284 42.5608 10.9782C42.741 9.85654 43.6557 9.07231 44.787 9.07231C45.3511 9.07231 45.8097 9.25915 46.1117 9.61166C46.4156 9.96779 46.5357 10.4648 46.4478 11.0126ZM51.5587 3.62445L49.8561 14.4222C49.8483 14.4713 49.8513 14.5216 49.8648 14.5694C49.8784 14.6173 49.9021 14.6617 49.9345 14.6995C49.9669 14.7373 50.0072 14.7677 50.0525 14.7885C50.0978 14.8093 50.1471 14.8201 50.197 14.8201H51.9087C52.1932 14.8201 52.4346 14.6145 52.4783 14.3345L54.1573 3.73147C54.1651 3.68232 54.1621 3.63207 54.1486 3.58418C54.135 3.53628 54.1113 3.49188 54.0789 3.45402C54.0465 3.41616 54.0063 3.38574 53.9609 3.36485C53.9156 3.34396 53.8663 3.3331 53.8164 3.33301H51.8996C51.8174 3.3333 51.7378 3.36279 51.6754 3.41619C51.6129 3.46959 51.5716 3.54342 51.5587 3.62445Z" fill="#179BD7"/>
</g>
<defs>
<clipPath id="clip0_6368_1670">
<rect width="53.3333" height="20" fill="white" transform="translate(0.828186)"/>
</clipPath>
</defs>
</svg>
