<svg width="15" height="15" viewBox="0 0 15 15" fill="none" xmlns="http://www.w3.org/2000/svg">
<g id="Phone" clip-path="url(#clip0_6368_1666)">
<path id="Vector" d="M13.5727 10.1781V11.935C13.5734 12.0981 13.54 12.2596 13.4746 12.409C13.4093 12.5584 13.3135 12.6926 13.1933 12.8028C13.0731 12.9131 12.9312 12.9971 12.7767 13.0493C12.6222 13.1016 12.4585 13.121 12.296 13.1063C10.494 12.9105 8.76292 12.2947 7.24204 11.3084C5.82705 10.4093 4.62739 9.20959 3.72824 7.7946C2.73851 6.2668 2.12258 4.52735 1.93035 2.71717C1.91572 2.55522 1.93496 2.392 1.98687 2.2379C2.03877 2.0838 2.12219 1.94219 2.23182 1.8221C2.34144 1.702 2.47488 1.60605 2.62362 1.54035C2.77236 1.47465 2.93315 1.44064 3.09576 1.44049H4.85266C5.13687 1.43769 5.4124 1.53833 5.6279 1.72366C5.84339 1.90898 5.98414 2.16635 6.02392 2.44777C6.09808 3.01002 6.2356 3.56207 6.43387 4.0934C6.51266 4.30301 6.52971 4.53082 6.483 4.74983C6.4363 4.96883 6.32779 5.16986 6.17033 5.32909L5.42658 6.07284C6.26026 7.539 7.47421 8.75295 8.94037 9.58663L9.68412 8.84288C9.84335 8.68543 10.0444 8.57692 10.2634 8.53021C10.4824 8.4835 10.7102 8.50055 10.9198 8.57935C11.4511 8.77761 12.0032 8.91514 12.5654 8.98929C12.8499 9.02942 13.1097 9.17271 13.2954 9.39191C13.4812 9.6111 13.5799 9.89092 13.5727 10.1781Z" stroke="white" stroke-width="1.17127" stroke-linecap="round" stroke-linejoin="round"/>
</g>
<defs>
<clipPath id="clip0_6368_1666">
<rect width="14.0552" height="14.0552" fill="white" transform="translate(0.688721 0.269043)"/>
</clipPath>
</defs>
</svg>
