<svg width="24" height="24" viewBox="0 0 24 24" fill="none" xmlns="http://www.w3.org/2000/svg">
<g id="Icons/ twitter">
<path id="brand / Twitter" d="M22.4592 6.01238C21.6896 6.35373 20.8624 6.58442 19.9944 6.68815C20.8803 6.15701 21.5609 5.31598 21.8813 4.31378C21.052 4.80564 20.1336 5.16278 19.156 5.3552C18.3732 4.52112 17.2579 4 16.0235 4C13.6534 4 11.7317 5.92147 11.7317 8.29155C11.7317 8.6279 11.7697 8.95546 11.8429 9.2696C8.27611 9.0906 5.11377 7.38203 2.99711 4.78551C2.62767 5.41935 2.41603 6.15656 2.41603 6.94309C2.41603 8.43204 3.17366 9.74563 4.32525 10.5153C3.62181 10.4929 2.95998 10.2999 2.38141 9.97846C2.381 9.99639 2.381 10.0143 2.381 10.0324C2.381 12.1118 3.86035 13.8463 5.82361 14.2406C5.46351 14.3387 5.08436 14.3912 4.69296 14.3912C4.41642 14.3912 4.14757 14.3642 3.88548 14.3142C4.43163 16.0191 6.01655 17.26 7.89456 17.2945C6.42578 18.4457 4.57529 19.1318 2.56455 19.1318C2.21814 19.1318 1.87653 19.1114 1.54079 19.0717C3.44005 20.2894 5.69593 21 8.11952 21C16.0134 21 20.3302 14.4605 20.3302 8.78918C20.3302 8.60314 20.326 8.41805 20.3177 8.23395C21.1563 7.62886 21.8839 6.87302 22.4592 6.01238Z" fill="#212121"/>
</g>
</svg>
