<svg width="44" height="20" viewBox="0 0 44 20" fill="none" xmlns="http://www.w3.org/2000/svg">
<g clip-path="url(#clip0_6368_1674)">
<path d="M18.9392 17.2952H15.4289L17.6245 3.58154H21.1346L18.9392 17.2952Z" fill="#00579F"/>
<path d="M31.6643 3.91685C30.972 3.63938 29.8738 3.33301 28.5159 3.33301C25.0493 3.33301 22.6082 5.20031 22.5933 7.86999C22.5645 9.83967 24.341 10.9337 25.6697 11.5904C27.0278 12.2615 27.4895 12.6996 27.4895 13.2978C27.4757 14.2165 26.3921 14.64 25.3814 14.64C23.9799 14.64 23.229 14.4216 22.0878 13.9105L21.6256 13.6914L21.1344 16.7698C21.9577 17.1487 23.4745 17.4849 25.0493 17.4997C28.7326 17.4997 31.1305 15.6613 31.1589 12.8163C31.1729 11.2552 30.2348 10.059 28.2124 9.0815C26.9846 8.45403 26.2327 8.03093 26.2327 7.38891C26.2471 6.80526 26.8687 6.20745 28.2546 6.20745C29.3958 6.17817 30.2343 6.45526 30.8695 6.73254L31.187 6.87816L31.6643 3.91685Z" fill="#00579F"/>
<path d="M36.3299 12.437C36.619 11.6491 37.7313 8.59999 37.7313 8.59999C37.7168 8.62927 38.0199 7.79761 38.1932 7.28706L38.4385 8.46871C38.4385 8.46871 39.1032 11.7513 39.2476 12.437C38.699 12.437 37.0232 12.437 36.3299 12.437ZM40.6629 3.58154H37.9477C37.1104 3.58154 36.4742 3.82935 36.113 4.71937L30.8989 17.2951H34.5821C34.5821 17.2951 35.1885 15.6025 35.3188 15.2379C35.7229 15.2379 39.306 15.2379 39.8258 15.2379C39.9265 15.7194 40.2446 17.2951 40.2446 17.2951H43.4948L40.6629 3.58154Z" fill="#00579F"/>
<path d="M12.4969 3.58154L9.0592 12.933L8.68354 11.0364C8.04797 8.84799 6.0547 6.47033 3.83031 5.2881L6.97916 17.2807H10.6912L16.2088 3.58154H12.4969Z" fill="#00579F"/>
<path d="M5.867 3.58252H0.219262L0.161484 3.85961C4.56707 4.99763 7.48481 7.7408 8.68357 11.038L7.45582 4.73528C7.25369 3.85942 6.63252 3.61141 5.867 3.58252Z" fill="#FAA61A"/>
</g>
<defs>
<clipPath id="clip0_6368_1674">
<rect width="43.3333" height="20" fill="white" transform="translate(0.161514)"/>
</clipPath>
</defs>
</svg>
